<svg width="750" height="709" viewBox="0 0 750 709" fill="none" xmlns="http://www.w3.org/2000/svg">
<path d="M8.71567 22.1875C103.674 11.2291 166.21 78.4796 148.392 172.391C53.4339 183.348 -9.10238 116.101 8.71567 22.1875Z" fill="#2A8398"/>
<path d="M15.9401 29.9531L14.9658 30.8564L140.952 166.738L141.927 165.835L15.9401 29.9531Z" fill="white"/>
<path d="M17.4866 82.8601L17.4609 84.1885L64.9869 85.1059L65.0126 83.7775L17.4866 82.8601Z" fill="white"/>
<path d="M81.0976 41.6466L79.7715 41.7295L83.7298 105.043L85.0559 104.96L81.0976 41.6466Z" fill="white"/>
<path d="M129.601 96.0154L128.277 96.1318L133.8 158.939L135.124 158.822L129.601 96.0154Z" fill="white"/>
<path d="M52.4747 132.78L52.4561 134.108L110.449 134.92L110.468 133.592L52.4747 132.78Z" fill="white"/>
<path opacity="0.5" d="M214.829 138.952C210.367 139.861 205.915 140.823 201.475 141.837C176.775 147.483 151.241 155.472 133.743 173.796C100.408 208.702 108.866 264.501 97.64 311.446C86.4576 358.206 48.7307 393.283 25.8597 434.625C7.34345 468.095 -5.02456 506.919 1.99125 544.52C9.75607 586.135 40.6441 620.698 77.3152 641.845C113.988 662.993 156.151 672.429 197.915 679.343C338.058 702.545 497.829 710.163 635.992 671.33C664.472 663.326 694.75 650.194 707.383 623.44C725.501 585.068 700.151 539.271 678.612 507.789C649.99 465.951 618.652 424.656 603.471 376.293C588.209 327.675 589.895 273.626 565.857 228.695C547.728 194.81 516.17 169.357 481.101 153.642C446.031 137.928 407.503 131.319 369.164 128.696C317.567 125.167 265.502 128.634 214.829 138.952Z" fill="#112B44"/>
<path d="M279.506 464.3C279.506 467.357 277.03 469.833 273.973 469.833C270.917 469.833 268.44 467.357 268.44 464.3C268.44 461.244 270.917 458.768 273.973 458.768C277.03 458.768 279.506 461.244 279.506 464.3Z" fill="#DB6C5A"/>
<path d="M330.163 212.788C315.804 212.788 303.231 205.328 295.995 194.094C293.255 189.839 288.695 187.146 283.708 186.619V276.502H193.365C194.033 271.72 196.68 267.386 200.775 264.74C212.011 257.521 219.452 244.931 219.452 230.572C219.452 207.257 199.818 188.516 176.167 189.997C155.833 191.271 139.323 207.91 138.19 228.261C137.345 243.608 145.012 257.201 156.915 264.802C160.995 267.416 163.577 271.767 164.215 276.5H73.3467V121.373C73.3467 90.8708 98.0808 66.1367 128.583 66.1367H283.71V157.611C288.65 157.101 293.223 154.472 295.933 150.234C303.534 138.346 317.129 130.664 332.491 131.509C352.842 132.64 369.481 149.15 370.755 169.501C372.221 193.136 353.495 212.788 330.163 212.788Z" fill="#0D6376"/>
<path d="M87.1084 455.121L78.7979 458.373L80.9658 463.793L91.083 460.902L87.1084 455.121Z" fill="#EEBCC5"/>
<path d="M162.888 481.37L160.872 488.359L166.64 489.594L171.586 480.94L162.888 481.37Z" fill="#EEBCC5"/>
<path d="M160.873 488.359L166.641 489.594L169.114 494.54L176.531 496.188V499.073L157.164 498.249L160.873 488.359Z" fill="#0D6376"/>
<path d="M80.9648 463.793L78.7968 458.373L72.1611 460.469L71.6963 478.778L74.5662 478.933C74.5662 478.933 77.5133 469.546 77.8238 469.312C78.1344 469.079 80.9648 463.793 80.9648 463.793Z" fill="#0D6376"/>
<path d="M160.281 369.473L158.438 333.558L127.554 309.485L117.879 274.507L125.553 272.145L140.9 298.118L171.405 321.011H196.79C196.79 321.011 208.704 305.954 212.355 295.46C216.004 284.967 217.683 261.247 217.683 261.247L227.068 262.61C227.068 262.61 232.038 290.914 229.3 301.407C226.562 311.901 209.807 333.878 209.807 333.878L203.471 371.313L160.281 369.473Z" fill="#006480"/>
<path d="M126.04 269.093C126.04 271.97 123.709 274.304 120.831 274.304C117.954 274.304 115.62 271.97 115.62 269.093C115.62 266.215 117.954 263.882 120.831 263.882C123.709 263.882 126.04 266.215 126.04 269.093Z" fill="#EEBCC5"/>
<path d="M227.671 258.091C227.671 260.968 225.338 263.3 222.46 263.3C219.583 263.3 217.251 260.968 217.251 258.091C217.251 255.213 219.585 252.88 222.46 252.88C225.339 252.882 227.671 255.213 227.671 258.091Z" fill="#EEBCC5"/>
<path d="M181.039 300.478V321.525C181.039 324.602 183.533 327.095 186.61 327.095C189.687 327.095 192.18 324.602 192.18 321.525V300.478H181.039Z" fill="#EEBCC5"/>
<path d="M202.14 299.523C202.14 309.04 194.425 316.754 184.909 316.754C175.392 316.754 167.678 309.04 167.678 299.523C167.678 290.006 175.392 282.292 184.909 282.292C194.425 282.29 202.14 290.006 202.14 299.523Z" fill="#EEBCC5"/>
<path d="M203.439 371.406L160.401 368.76L123.9 421.602L82.6309 455.157L88.4159 466.727L135.47 439.729L174.384 389.211L179.757 388.706L159.959 487.334L173.072 488.877C173.072 488.877 193.708 430.474 194.479 423.145C195.251 415.817 203.439 371.406 203.439 371.406Z" fill="#0D6376"/>
<path d="M167.678 299.523C167.678 301.463 168.013 303.322 168.606 305.063C169.972 305.411 171.395 305.617 172.868 305.617C182.385 305.617 190.099 297.903 190.099 288.386C190.099 286.445 189.764 284.586 189.171 282.845C187.805 282.497 186.382 282.292 184.909 282.292C175.394 282.29 167.678 290.006 167.678 299.523Z" fill="#0D6376"/>
<path d="M178.628 306.046C178.628 309.65 175.708 312.571 172.104 312.571C168.5 312.571 165.579 309.65 165.579 306.046C165.579 302.442 168.5 299.521 172.104 299.521C175.708 299.523 178.628 302.444 178.628 306.046Z" fill="#EEBCC5"/>
<path d="M158.316 383.996L158.248 382.227C162.209 382.076 166.165 380.723 169.389 378.414L170.42 379.852C166.918 382.36 162.62 383.834 158.316 383.996Z" fill="white"/>
<path d="M91.7032 451.487L90.0781 452.195L93.2982 459.582L94.9233 458.874L91.7032 451.487Z" fill="white"/>
<path d="M174.097 485.866C170.352 485.243 166.53 484.831 162.732 484.643L162.821 482.876C166.684 483.066 170.576 483.484 174.387 484.12L174.097 485.866Z" fill="white"/>
<path d="M29.9196 482.533V482.531C124.58 469.252 188.745 534.95 173.232 629.27C78.573 642.549 14.4088 576.853 29.9196 482.533Z" fill="#53ADBC"/>
<path d="M37.326 490.157L36.374 491.084L165.641 623.853L166.592 622.926L37.326 490.157Z" fill="white"/>
<path d="M87.683 542.733L40.1475 542.98L40.1544 544.309L87.6899 544.062L87.683 542.733Z" fill="white"/>
<path d="M102.742 500.196L101.418 500.312L106.924 563.504L108.248 563.389L102.742 500.196Z" fill="white"/>
<path d="M152.591 553.353L151.271 553.502L158.332 616.151L159.652 616.002L152.591 553.353Z" fill="white"/>
<path d="M134.376 591.381L76.3828 591.99L76.3968 593.319L134.39 592.71L134.376 591.381Z" fill="white"/>
<path d="M662.728 532.774H662.729C656.218 628.139 578.709 677.389 489.609 642.777C496.121 547.41 573.628 498.16 662.728 532.774Z" fill="#0D5151"/>
<path d="M653.013 537.356L496.47 636.493L497.181 637.615L653.723 538.479L653.013 537.356Z" fill="white"/>
<path d="M600.161 530.044L590.606 576.609L591.908 576.876L601.463 530.311L600.161 530.044Z" fill="white"/>
<path d="M567.554 591.432L567.395 592.751L630.365 600.382L630.525 599.063L567.554 591.432Z" fill="white"/>
<path d="M505.528 630.836L505.401 632.159L568.164 638.161L568.29 636.838L505.528 630.836Z" fill="white"/>
<path d="M544.677 555.435L533.32 612.309L534.623 612.569L545.979 555.696L544.677 555.435Z" fill="white"/>
<path d="M4.41309 643.199C57.9557 564.013 149.715 560.372 209.362 635.065C155.819 714.249 64.0607 717.892 4.41309 643.199Z" fill="#2A8398"/>
<path d="M200.225 635.713L15.0527 642.792L15.1035 644.12L200.276 637.041L200.225 635.713Z" fill="white"/>
<path d="M87.7984 640.567L56.1445 676.028L57.1357 676.913L88.7896 641.452L87.7984 640.567Z" fill="white"/>
<path d="M66.3282 600.95L65.5273 602.01L116.141 640.248L116.942 639.188L66.3282 600.95Z" fill="white"/>
<path d="M139.172 599.534L138.398 600.614L189.649 637.332L190.423 636.252L139.172 599.534Z" fill="white"/>
<path d="M155.213 638.594L116.817 682.064L117.813 682.944L156.209 639.474L155.213 638.594Z" fill="white"/>
<path d="M750 155.03C722.825 231.908 647.861 254.642 582.562 205.806C609.738 128.927 684.703 106.194 750 155.03Z" fill="#006480"/>
<path d="M741.019 156.543L589.683 202.193L590.01 203.278L741.346 157.627L741.019 156.543Z" fill="white"/>
<path d="M699.219 138.536L680.716 174.617L681.724 175.134L700.227 139.053L699.219 138.536Z" fill="white"/>
<path d="M658.417 181.513L657.984 182.56L707.983 203.246L708.416 202.199L658.417 181.513Z" fill="white"/>
<path d="M598.353 199.673L597.946 200.73L648.146 220.027L648.553 218.97L598.353 199.673Z" fill="white"/>
<path d="M647.823 146.581L625.475 190.724L626.485 191.235L648.834 147.093L647.823 146.581Z" fill="white"/>
<path d="M700.008 286.736C638.51 292.506 599.037 248.198 611.843 187.773C673.341 182.003 712.814 226.311 700.008 286.736Z" fill="#53ADBC"/>
<path d="M616.604 191.508L615.962 192.078L695.481 281.607L696.122 281.037L616.604 191.508Z" fill="white"/>
<path d="M664.552 245.308L664.518 246.165L695.21 247.412L695.245 246.555L664.552 245.308Z" fill="white"/>
<path d="M652.748 232.15L651.891 232.186L653.575 273.143L654.433 273.108L652.748 232.15Z" fill="white"/>
<path d="M621.093 196.67L620.236 196.727L622.937 237.377L623.794 237.32L621.093 196.67Z" fill="white"/>
<path d="M635.842 212.482L635.812 213.34L673.268 214.663L673.298 213.805L635.842 212.482Z" fill="white"/>
<path d="M607.251 282.379L525.606 242.23C523.671 247.033 523.942 252.511 526.63 256.941C533.958 269.015 534.831 284.611 527.302 298.01C517.307 315.774 495.149 323.418 476.337 315.587C454.46 306.481 445.112 281 455.408 260.063C461.737 247.193 473.972 239.178 487.239 237.659C492.46 237.047 497.022 233.946 499.666 229.472L418.479 189.549L458.143 108.892C462.387 111.566 465.289 115.992 465.87 121.021C467.406 134.296 475.398 146.538 488.282 152.873C509.218 163.169 534.694 153.798 543.806 131.944C551.643 113.119 543.998 90.961 526.235 80.9642C512.82 73.4271 497.232 74.321 485.165 81.6361C480.863 84.2444 475.6 84.585 470.942 82.8631L511.307 0.777344L650.513 69.2323C677.886 82.6918 689.166 115.802 675.706 143.173L607.251 282.379Z" fill="#277B89"/>
<path d="M559.561 497.859V652.986C559.561 683.489 534.827 708.223 504.324 708.223H349.197V617.815C344.257 618.325 339.684 620.954 336.974 625.192C329.373 637.08 315.778 644.762 300.416 643.902C280.065 642.771 263.427 626.261 262.153 605.925C260.687 582.275 279.412 562.641 302.742 562.641C317.101 562.641 329.674 570.084 336.91 581.319C339.65 585.591 344.21 588.267 349.197 588.794V497.859H439.669C439.27 503.038 436.545 507.835 432.13 510.688C420.895 517.907 413.454 530.498 413.454 544.84C413.454 568.172 433.088 586.912 456.738 585.429C477.072 584.155 493.582 567.517 494.715 547.166C495.56 531.819 487.893 518.209 475.99 510.607C471.624 507.818 468.963 503.021 468.579 497.857L559.561 497.859Z" fill="#53ADBC"/>
<path d="M262.222 605.925C263.496 626.259 280.134 642.769 300.485 643.902C315.849 644.762 329.442 637.08 337.044 625.192C339.753 620.954 344.327 618.323 349.267 617.815V708.222H194.14C163.637 708.222 138.903 683.488 138.903 652.986V497.859H229.774C229.136 493.126 226.556 488.775 222.474 486.161C210.569 478.56 202.904 464.965 203.749 449.62C204.88 429.269 221.39 412.631 241.726 411.357C265.376 409.875 285.01 428.618 285.01 451.931C285.01 466.29 277.569 478.88 266.334 486.099C262.239 488.745 259.593 493.079 258.923 497.861H349.267V588.796C344.278 588.269 339.72 585.593 336.98 581.321C329.744 570.086 317.17 562.644 302.811 562.644C279.483 562.643 260.756 582.275 262.222 605.925Z" fill="#006480"/>
<path d="M668.366 509.373L665.991 509.768L697.959 702.062L700.334 701.667L668.366 509.373Z" fill="#0D6376"/>
<path d="M609.674 509.386L607.3 509.781L639.268 702.075L641.642 701.68L609.674 509.386Z" fill="#0D6376"/>
<path d="M674.463 549.246H615.258V551.653H674.463V549.246Z" fill="#0D6376"/>
<path d="M678.654 574.921H619.447V577.328H678.654V574.921Z" fill="#0D6376"/>
<path d="M682.848 600.592H623.643V602.999H682.848V600.592Z" fill="#0D6376"/>
<path d="M687.037 626.265H627.832V628.672H687.037V626.265Z" fill="#0D6376"/>
<path d="M691.229 651.94H632.023V654.347H691.229V651.94Z" fill="#0D6376"/>
<path d="M695.421 677.614H636.214V680.021H695.421V677.614Z" fill="#0D6376"/>
<path d="M605.525 509.318L573.558 701.613L575.932 702.008L607.9 509.713L605.525 509.318Z" fill="#0D6376"/>
<path d="M664.206 509.449L632.219 701.724L634.593 702.119L666.58 509.844L664.206 509.449Z" fill="#0D6376"/>
<path d="M658.579 549.245H599.374V551.652H658.579V549.245Z" fill="#0D6376"/>
<path d="M654.387 574.921H595.182V577.328H654.387V574.921Z" fill="#0D6376"/>
<path d="M650.196 600.592H590.99V602.999H650.196V600.592Z" fill="#0D6376"/>
<path d="M646.005 626.265H586.798V628.672H646.005V626.265Z" fill="#0D6376"/>
<path d="M641.813 651.94H582.607V654.347H641.813V651.94Z" fill="#0D6376"/>
<path d="M637.618 677.613H578.413V680.02H637.618V677.613Z" fill="#0D6376"/>
<path d="M674.129 506.594H601.92V513.815H674.129V506.594Z" fill="#0D6376"/>
<path d="M691.577 434.445L699.888 437.697L697.72 443.117L687.603 440.227L691.577 434.445Z" fill="#EEBCC5"/>
<path d="M620.763 491.532L622.78 498.519L617.01 499.756L612.066 491.103L620.763 491.532Z" fill="#EEBCC5"/>
<path d="M589.4 320.349C598.81 320.349 606.437 312.721 606.437 303.311C606.437 293.902 598.81 286.274 589.4 286.274C579.991 286.274 572.363 293.902 572.363 303.311C572.363 312.721 579.991 320.349 589.4 320.349Z" fill="#EEBCC5"/>
<path d="M579.502 310.766L584.943 327.238C584.943 327.238 595.822 330.838 595.822 330.276C595.822 329.713 590.758 311.517 590.758 311.517L579.502 310.766Z" fill="#EEBCC5"/>
<path d="M530.882 276.825C530.882 279.392 528.8 281.473 526.233 281.473C523.666 281.473 521.585 279.392 521.585 276.825C521.585 274.258 523.666 272.177 526.233 272.177C528.802 272.175 530.882 274.256 530.882 276.825Z" fill="#EEBCC5"/>
<path d="M609.479 325.718C609.479 328.285 607.398 330.366 604.831 330.366C602.264 330.366 600.183 328.285 600.183 325.718C600.183 323.151 602.264 321.069 604.831 321.069C607.398 321.067 609.479 323.149 609.479 325.718Z" fill="#EEBCC5"/>
<path d="M524.671 283.939C524.671 283.939 539.049 310.226 545.295 317.512C551.541 324.799 567.677 333.648 567.677 333.648L570.996 371.558L611.597 369.996L608.371 346.583C608.371 346.583 622.945 356.472 630.234 355.431C637.52 354.391 645.432 347.614 633.459 339.286C621.486 330.957 610.037 326.273 610.037 326.273L605.872 329.397C605.872 329.397 582.45 320.027 577.244 319.507C572.039 318.986 535.082 279.949 535.082 279.949L524.671 283.939Z" fill="#0D6376"/>
<path d="M570.996 371.557C570.996 371.557 581.646 414.623 588.15 434.856C594.654 455.089 606.214 493.388 606.214 493.388L620.762 491.532L595.463 389.492L641.514 436.913L687.76 447.03L691.577 434.448L648.943 419.996L611.597 369.997L570.996 371.557Z" fill="#006480"/>
<path d="M595.463 389.492L609.545 385.826L605.689 399.828L595.463 389.492Z" fill="url(#paint0_linear_65_2666)"/>
<path d="M614.389 288.408C614.389 293.081 610.601 296.868 605.93 296.868C601.257 296.868 597.471 293.079 597.471 288.408C597.471 283.736 601.259 279.949 605.93 279.949C610.601 279.947 614.389 283.736 614.389 288.408Z" fill="#0D6376"/>
<path d="M606.437 303.311C606.437 293.902 598.81 286.274 589.4 286.274C584.677 286.274 580.405 288.198 577.318 291.303C577.572 300.054 583.747 309.776 588.482 315.845C589.668 317.364 590.964 318.845 592.449 320.061C600.4 318.623 606.437 311.678 606.437 303.311Z" fill="#0D6376"/>
<path d="M584.87 312.994C588.474 312.994 591.395 310.072 591.395 306.469C591.395 302.866 588.474 299.944 584.87 299.944C581.267 299.944 578.346 302.866 578.346 306.469C578.346 310.072 581.267 312.994 584.87 312.994Z" fill="#EEBCC5"/>
<path d="M622.78 498.52L617.01 499.756L614.539 504.702L607.12 506.35V509.233L626.487 508.409L622.78 498.52Z" fill="#0D6376"/>
<path d="M697.72 443.117L699.888 437.697L706.523 439.794L706.988 458.103L704.118 458.257C704.118 458.257 701.171 448.87 700.859 448.637C700.55 448.405 697.72 443.117 697.72 443.117Z" fill="#0D6376"/>
<path d="M583.648 391.476C576.251 384.076 575.394 377.461 575.362 377.184L577.12 376.974C577.129 377.038 577.971 383.293 584.9 390.224L583.648 391.476Z" fill="white"/>
<path d="M617.386 481.17L605.017 482.409L605.193 484.17L617.563 482.93L617.386 481.17Z" fill="white"/>
<path d="M679.734 432.561L677.428 442.377L679.15 442.781L681.456 432.965L679.734 432.561Z" fill="white"/>
<path d="M398.571 303.067C398.571 312.584 390.857 320.298 381.34 320.298C371.823 320.298 364.109 312.584 364.109 303.067C364.109 293.55 371.823 285.836 381.34 285.836C390.857 285.836 398.571 293.55 398.571 303.067Z" fill="#0D6376"/>
<path d="M356.711 369.473L353.8 334.277L323.985 309.486L314.31 274.509L321.984 272.147L337.331 298.12L362.818 320.251L393.221 321.013C393.221 321.013 405.135 305.956 408.786 295.462C412.437 284.969 414.114 261.249 414.114 261.249L423.499 262.612C423.499 262.612 428.469 290.916 425.731 301.409C422.993 311.903 402.389 333.775 402.389 333.775V370.843L356.711 369.473Z" fill="#66C9D3"/>
<path d="M322.469 269.093C322.469 271.97 320.137 274.304 317.26 274.304C314.382 274.304 312.049 271.97 312.049 269.093C312.049 266.215 314.382 263.882 317.26 263.882C320.137 263.884 322.469 266.215 322.469 269.093Z" fill="#EEBCC5"/>
<path d="M364.247 481.643L363.048 490.52L357.267 491.184L358.97 481.643H364.247Z" fill="#EEBCC5"/>
<path d="M363.336 489.545L358.057 489.784L354.22 493.623L348.81 495.603V498.486L364.633 497.662L363.336 489.545Z" fill="#0D6376"/>
<path d="M424.102 258.091C424.102 260.968 421.768 263.3 418.893 263.3C416.015 263.3 413.684 260.968 413.684 258.091C413.684 255.213 416.015 252.88 418.893 252.88C421.77 252.882 424.102 255.213 424.102 258.091Z" fill="#EEBCC5"/>
<path d="M415.101 481.643L416.301 490.52L422.083 491.184L420.379 481.643H415.101Z" fill="#EEBCC5"/>
<path d="M377.468 300.478V321.525C377.468 324.602 379.963 327.095 383.04 327.095C386.117 327.095 388.611 324.602 388.611 321.525V300.478H377.468Z" fill="#EEBCC5"/>
<path d="M398.571 299.523C398.571 309.04 390.857 316.754 381.34 316.754C371.823 316.754 364.109 309.04 364.109 299.523C364.109 290.006 371.823 282.292 381.34 282.292C390.857 282.29 398.571 290.006 398.571 299.523Z" fill="#EEBCC5"/>
<path d="M375.059 306.046C375.059 309.65 372.138 312.571 368.534 312.571C364.931 312.571 362.01 309.65 362.01 306.046C362.01 302.442 364.931 299.521 368.534 299.521C372.138 299.523 375.059 302.444 375.059 306.046Z" fill="#EEBCC5"/>
<path d="M399.897 306.046C399.897 309.65 396.976 312.571 393.372 312.571C389.768 312.571 386.848 309.65 386.848 306.046C386.848 302.442 389.768 299.521 393.372 299.521C396.976 299.523 399.897 302.444 399.897 306.046Z" fill="#EEBCC5"/>
<path d="M381.351 277.672C379.967 277.672 378.846 278.793 378.846 280.177V285.687C378.846 287.07 379.967 288.192 381.351 288.192C382.734 288.192 383.855 287.07 383.855 285.687V280.177C383.855 278.793 382.734 277.672 381.351 277.672Z" fill="#EEBCC5"/>
<path d="M356.711 369.473C356.711 369.473 352.798 404.907 351.797 417.932C350.796 430.957 353.3 487.561 353.3 487.561H366.325L377.346 385.874H383.357C383.357 385.874 395.879 426.948 398.384 436.467C400.889 445.984 414.414 486.329 414.414 486.329H424.934C424.934 486.329 415.417 419.436 413.913 415.429C412.41 411.423 402.392 370.846 402.392 370.846L356.711 369.473Z" fill="#277B89"/>
<path d="M359.794 385.844L358.304 384.886C359.766 382.616 361.322 380.35 362.931 378.15L364.36 379.197C362.771 381.367 361.234 383.602 359.794 385.844Z" fill="white"/>
<path d="M396.84 379.294L395.432 380.368L401.826 388.757L403.234 387.683L396.84 379.294Z" fill="white"/>
<path d="M358.512 372.971L358.481 374.741L398.348 375.419L398.378 373.649L358.512 372.971Z" fill="white"/>
<path d="M363.385 480.811L355.276 481.287L355.38 483.055L363.489 482.579L363.385 480.811Z" fill="white"/>
<path d="M422.152 481.287H415.097V483.058H422.152V481.287Z" fill="white"/>
<path d="M416.015 489.545L421.292 489.784L425.13 493.623L430.54 495.603V498.486L414.717 497.662L416.015 489.545Z" fill="#0D6376"/>
<defs>
<linearGradient id="paint0_linear_65_2666" x1="619.943" y1="399.14" x2="590.021" y2="383.815" gradientUnits="userSpaceOnUse">
<stop stop-color="#484EC2" stop-opacity="0"/>
<stop offset="0.9826" stop-color="#1F40E5" stop-opacity="0.5"/>
</linearGradient>
</defs>
</svg>
