<svg width="202" height="59" viewBox="0 0 202 59" fill="none" xmlns="http://www.w3.org/2000/svg">
<mask id="mask0_30_2870" style="mask-type:alpha" maskUnits="userSpaceOnUse" x="0" y="13" width="46" height="46">
<circle cx="22.8066" cy="36.0419" r="22.8066" fill="#D9D9D9"/>
</mask>
<g mask="url(#mask0_30_2870)">
<circle cx="22.8066" cy="36.0419" r="22.8066" fill="#011328"/>
<circle cx="28.3447" cy="31.4243" r="15.5" fill="#0389A6"/>
<circle cx="29.8941" cy="28.9736" r="7.04932" fill="#55D8CD"/>
</g>
<path d="M185.14 58.8486C182.157 58.8486 179.399 58.342 176.866 57.3288C174.389 56.2594 172.391 54.7114 170.871 52.6851C169.352 50.6587 168.592 48.2665 168.592 45.5084H176.528C176.528 47.3096 177.345 48.745 178.977 49.8144C180.665 50.8839 182.776 51.4186 185.309 51.4186C187.898 51.4186 189.897 50.912 191.304 49.8989C192.711 48.8857 193.415 47.5348 193.415 45.8462C193.415 43.9887 192.627 42.6659 191.051 41.8779C189.474 41.0899 187.026 40.33 183.705 39.5982C180.665 38.9228 178.189 38.2474 176.275 37.5719C174.361 36.8402 172.701 35.6581 171.294 34.0258C169.943 32.3372 169.267 30.0575 169.267 27.1869C169.267 24.8791 169.943 22.8246 171.294 21.0234C172.701 19.2222 174.586 17.815 176.95 16.8018C179.371 15.7886 182.016 15.282 184.887 15.282C189.39 15.282 193.077 16.4078 195.948 18.6593C198.874 20.9108 200.338 24.0066 200.338 27.9467H192.401C192.401 26.3707 191.642 25.1042 190.122 24.1473C188.658 23.1341 186.857 22.6276 184.718 22.6276C182.636 22.6276 180.919 23.106 179.568 24.0629C178.217 25.0198 177.542 26.2581 177.542 27.7779C177.542 29.3539 178.273 30.5078 179.737 31.2396C181.2 31.915 183.508 32.6186 186.66 33.3503C189.756 34.0258 192.317 34.7294 194.343 35.4611C196.37 36.1929 198.086 37.4312 199.494 39.1761C200.957 40.8647 201.689 43.2007 201.689 46.1839C201.689 50.2929 200.141 53.445 197.045 55.6402C194.006 57.7791 190.037 58.8486 185.14 58.8486Z" fill="#011328"/>
<path d="M153.523 10.1318C152.116 10.1318 150.906 9.65331 149.892 8.69642C148.935 7.68325 148.457 6.47307 148.457 5.06588C148.457 3.6024 148.935 2.39222 149.892 1.43533C150.906 0.478447 152.116 0 153.523 0C154.93 0 156.112 0.506591 157.069 1.51977C158.026 2.47665 158.504 3.65869 158.504 5.06588C158.504 6.47307 158.026 7.68325 157.069 8.69642C156.112 9.65331 154.93 10.1318 153.523 10.1318ZM149.386 15.9575H157.66V58.1731H149.386V15.9575Z" fill="#011328"/>
<path d="M118.902 36.1366C118.902 29.3821 120.507 24.3162 123.715 20.9389C126.98 17.5054 131.286 15.7886 136.633 15.7886H137.477V23.8096H136.633C133.593 23.8096 131.257 24.8228 129.625 26.8491C127.993 28.8755 127.177 31.9713 127.177 36.1366V58.1731H118.902V36.1366Z" fill="#011328"/>
<path d="M85.3965 58.8486C81.4564 58.8486 77.8259 57.8917 74.5049 55.9779C71.184 54.0078 68.5384 51.3623 66.5684 48.0414C64.5983 44.6641 63.6133 41.0054 63.6133 37.0653C63.6133 33.1252 64.5983 29.4946 66.5684 26.1737C68.5384 22.7964 71.184 20.1509 74.5049 18.2371C77.8259 16.2671 81.4564 15.282 85.3965 15.282C89.3367 15.282 92.9672 16.2671 96.2882 18.2371C99.6091 20.1509 102.227 22.7964 104.14 26.1737C106.11 29.4946 107.095 33.1252 107.095 37.0653V58.1731H98.8211V51.5031C97.8079 53.5857 96.0349 55.3306 93.5019 56.7378C91.0253 58.145 88.3235 58.8486 85.3965 58.8486ZM85.481 50.8276C88.0139 50.8276 90.2936 50.2366 92.3199 49.0545C94.3463 47.8162 95.9505 46.1557 97.1325 44.0731C98.3145 41.9342 98.9055 39.5982 98.9055 37.0653C98.9055 34.5324 98.3145 32.2246 97.1325 30.1419C96.0067 28.003 94.4025 26.3425 92.3199 25.1605C90.2936 23.9222 88.0139 23.303 85.481 23.303C82.948 23.303 80.6403 23.9222 78.5576 25.1605C76.475 26.3425 74.8426 28.003 73.6606 30.1419C72.4786 32.2246 71.8875 34.5324 71.8875 37.0653C71.8875 39.5982 72.4786 41.9342 73.6606 44.0731C74.8989 46.1557 76.5313 47.8162 78.5576 49.0545C80.6403 50.2366 82.948 50.8276 85.481 50.8276Z" fill="#011328"/>
</svg>
