<svg width="110" height="33" viewBox="0 0 110 33" fill="none" xmlns="http://www.w3.org/2000/svg">
<mask id="mask0_320_619" style="mask-type:alpha" maskUnits="userSpaceOnUse" x="0" y="7" width="25" height="26">
<circle cx="12.4386" cy="19.6571" r="12.4386" fill="#D9D9D9"/>
</mask>
<g mask="url(#mask0_320_619)">
<circle cx="12.4386" cy="19.6571" r="12.4386" fill="white"/>
<circle cx="15.459" cy="17.1387" r="8.4536" fill="#0389A6"/>
<circle cx="16.3041" cy="15.8019" r="3.84466" fill="#55D8CD"/>
</g>
<path d="M100.975 32.0956C99.3476 32.0956 97.8434 31.8193 96.4619 31.2668C95.1112 30.6835 94.0214 29.8393 93.1925 28.7341C92.3637 27.6289 91.9492 26.3242 91.9492 24.82H96.2778C96.2778 25.8024 96.7229 26.5852 97.6132 27.1685C98.5341 27.7517 99.6853 28.0434 101.067 28.0434C102.479 28.0434 103.569 27.7671 104.336 27.2145C105.104 26.6619 105.487 25.9252 105.487 25.0042C105.487 23.9911 105.058 23.2697 104.198 22.8399C103.338 22.4101 102.003 21.9957 100.192 21.5966C98.5341 21.2282 97.1834 20.8598 96.1396 20.4915C95.0959 20.0924 94.1902 19.4477 93.4228 18.5574C92.686 17.6365 92.3176 16.3932 92.3176 14.8275C92.3176 13.5689 92.686 12.4484 93.4228 11.466C94.1902 10.4836 95.2186 9.71617 96.508 9.16359C97.828 8.61101 99.2709 8.33472 100.837 8.33472C103.292 8.33472 105.303 8.9487 106.869 10.1766C108.465 11.4046 109.263 13.093 109.263 15.242H104.935C104.935 14.3824 104.52 13.6917 103.692 13.1698C102.893 12.6172 101.911 12.3409 100.744 12.3409C99.6086 12.3409 98.6723 12.6019 97.9355 13.1237C97.1987 13.6456 96.8303 14.321 96.8303 15.1499C96.8303 16.0094 97.2294 16.6388 98.0276 17.0378C98.8258 17.4062 100.084 17.79 101.804 18.189C103.492 18.5574 104.889 18.9412 105.994 19.3403C107.099 19.7393 108.035 20.4147 108.803 21.3664C109.601 22.2873 110 23.5613 110 25.1884C110 27.4294 109.156 29.1485 107.467 30.3458C105.81 31.5123 103.645 32.0956 100.975 32.0956Z" fill="white"/>
<path d="M83.7302 5.52579C82.9627 5.52579 82.3027 5.26485 81.7501 4.74297C81.2282 4.19039 80.9673 3.53037 80.9673 2.7629C80.9673 1.96473 81.2282 1.3047 81.7501 0.782821C82.3027 0.260942 82.9627 0 83.7302 0C84.4977 0 85.1423 0.276292 85.6642 0.828871C86.1861 1.35075 86.447 1.99543 86.447 2.7629C86.447 3.53037 86.1861 4.19039 85.6642 4.74297C85.1423 5.26485 84.4977 5.52579 83.7302 5.52579ZM81.4738 8.70312H85.9865V31.7273H81.4738V8.70312Z" fill="white"/>
<path d="M64.8486 19.7087C64.8486 16.0249 65.7235 13.262 67.4734 11.42C69.2539 9.5474 71.6024 8.61108 74.5188 8.61108H74.9793V12.9857H74.5188C72.861 12.9857 71.587 13.5382 70.6968 14.6434C69.8065 15.7486 69.3614 17.437 69.3614 19.7087V31.7273H64.8486V19.7087Z" fill="white"/>
<path d="M46.5748 32.0956C44.4259 32.0956 42.4458 31.5737 40.6346 30.53C38.8233 29.4555 37.3805 28.0127 36.306 26.2014C35.2316 24.3595 34.6943 22.3641 34.6943 20.2152C34.6943 18.0663 35.2316 16.0862 36.306 14.2749C37.3805 12.433 38.8233 10.9902 40.6346 9.94641C42.4458 8.87195 44.4259 8.33472 46.5748 8.33472C48.7237 8.33472 50.7038 8.87195 52.515 9.94641C54.3263 10.9902 55.7537 12.433 56.7975 14.2749C57.872 16.0862 58.4092 18.0663 58.4092 20.2152V31.7272H53.8965V28.0894C53.3439 29.2253 52.3769 30.177 50.9954 30.9444C49.6447 31.7119 48.1711 32.0956 46.5748 32.0956ZM46.6208 27.721C48.0023 27.721 49.2456 27.3987 50.3508 26.754C51.4559 26.0786 52.3308 25.173 52.9755 24.0372C53.6202 22.8706 53.9425 21.5966 53.9425 20.2152C53.9425 18.8337 53.6202 17.5751 52.9755 16.4392C52.3615 15.2727 51.4866 14.367 50.3508 13.7224C49.2456 13.047 48.0023 12.7093 46.6208 12.7093C45.2394 12.7093 43.9807 13.047 42.8449 13.7224C41.709 14.367 40.8188 15.2727 40.1741 16.4392C39.5294 17.5751 39.2071 18.8337 39.2071 20.2152C39.2071 21.5966 39.5294 22.8706 40.1741 24.0372C40.8495 25.173 41.7397 26.0786 42.8449 26.754C43.9807 27.3987 45.2394 27.721 46.6208 27.721Z" fill="white"/>
</svg>
